<?xml version="1.0" encoding="iso-8859-1"?>
<!-- Generator: Adobe Illustrator 17.1.0, SVG Export Plug-In . SVG Version: 6.00 Build 0)  -->
<!DOCTYPE svg PUBLIC "-//W3C//DTD SVG 1.1//EN" "http://www.w3.org/Graphics/SVG/1.1/DTD/svg11.dtd">
<svg version="1.1" id="Capa_1" xmlns="http://www.w3.org/2000/svg" xmlns:xlink="http://www.w3.org/1999/xlink" x="0px" y="0px"
	 viewBox="0 0 465.002 465.002" style="enable-background:new 0 0 465.002 465.002;" xml:space="preserve">
<path d="M377.012,154.096l85.793-85.793c2.929-2.929,2.929-7.678,0-10.606c-2.928-2.929-7.677-2.929-10.606,0l-61.569,61.568
	c-0.431-11.368-4.967-22.607-13.627-31.266c-8.401-8.401-19.439-13.201-31.246-13.647l61.548-61.548
	c2.929-2.929,2.929-7.678,0-10.606c-2.929-2.929-7.678-2.929-10.606,0l-86.524,86.525l-6.508,6.508
	c-7.427-1.896-15.065-2.854-22.766-2.854c-21.973,0-42.75,7.695-59.296,21.776l-23.286-23.286L237,84.447
	c1.544-0.256,2.969-0.989,4.076-2.096l22.769-22.769c2.929-2.929,2.929-7.678,0-10.606c-2.929-2.929-7.678-2.929-10.606,0
	l-21.067,21.067l-50.698,8.412c-2.772,0.46-5.055,2.432-5.914,5.107c-0.858,2.676-0.149,5.607,1.838,7.595l33.37,33.37
	l-27.686,27.686l-19.595-43.396c-1.014-2.245-3.065-3.849-5.488-4.292c-2.425-0.442-4.91,0.333-6.651,2.075l-18.857,18.856
	c-2.929,2.929-2.929,7.677,0,10.606c2.928,2.929,7.677,2.929,10.606,0l11.184-11.184l17.462,38.671l-29.436,29.437l-19.595-43.396
	c-1.134-2.511-3.553-4.198-6.3-4.395c-2.745-0.192-5.382,1.129-6.862,3.453L32.94,268.991l-27.929,9.833
	c-3.907,1.375-5.959,5.658-4.583,9.565c1.085,3.083,3.981,5.011,7.074,5.011c0.826,0,1.667-0.138,2.491-0.428l30.373-10.693
	c1.583-0.557,2.935-1.63,3.836-3.046l70.55-110.822l16.217,35.915l-11.162,11.162c-23.372,23.372-33.564,55.527-29.476,92.991
	c3.032,27.781,12.76,48.578,13.173,49.45c0.01,0.022,0.026,0.041,0.036,0.062c0.166,0.343,0.359,0.676,0.581,0.995
	c0.033,0.047,0.068,0.092,0.102,0.139c0.228,0.313,0.474,0.616,0.757,0.898h0c0,0,0,0,0,0c0.282,0.282,0.586,0.529,0.899,0.757
	c0.046,0.034,0.09,0.068,0.137,0.101c0.32,0.222,0.653,0.415,0.996,0.581c0.022,0.011,0.04,0.026,0.062,0.036
	c1.213,0.574,30.108,14.059,65.396,14.06c0.002,0,0.001,0,0.003,0c30.973,0,56.895-10.216,77.041-30.362l11.162-11.162
	l35.915,16.217L185.769,420.8c-1.416,0.901-2.489,2.252-3.046,3.836l-10.693,30.373c-1.375,3.907,0.677,8.189,4.583,9.565
	c0.824,0.29,1.664,0.428,2.491,0.428c3.093,0,5.989-1.928,7.074-5.011l9.833-27.929l120.341-76.61
	c2.324-1.479,3.649-4.114,3.453-6.862c-0.197-2.748-1.884-5.167-4.395-6.3l-43.396-19.595l29.436-29.437l38.671,17.461
	l-11.183,11.184c-2.929,2.929-2.929,7.678,0,10.606c1.464,1.464,3.384,2.197,5.303,2.197s3.839-0.732,5.303-2.197l18.856-18.856
	c1.742-1.742,2.517-4.228,2.075-6.65c-0.442-2.423-2.046-4.475-4.292-5.488l-43.395-19.595l27.686-27.686l33.37,33.37
	c1.429,1.429,3.345,2.197,5.304,2.197c0.766,0,1.539-0.117,2.29-0.358c2.676-0.859,4.647-3.142,5.107-5.914l8.411-50.698
	l21.067-21.067c2.929-2.929,2.929-7.678,0-10.606c-2.929-2.929-7.678-2.929-10.606,0l-22.769,22.769
	c-1.107,1.106-1.839,2.532-2.096,4.076l-6.417,38.682l-23.279-23.279c19.234-22.638,26.321-53.129,18.916-82.069l7.23-7.23
	C377.006,154.102,377.009,154.099,377.012,154.096z M238.908,334.589c-17.232,17.232-39.585,25.97-66.437,25.969
	c-20,0-38.06-4.941-48.781-8.639l20.07-20.07c2.929-2.929,2.929-7.678,0-10.606c-2.929-2.929-7.678-2.929-10.606,0l-20.074,20.075
	c-2.824-8.174-6.368-20.607-7.883-34.895c-3.506-33.063,4.978-60.088,25.217-80.328l72.827-72.827
	c0.649,10.376,4.918,20.567,12.83,28.479l15.779,15.778c5.514,5.515,7.094,13.79,4.108,20.914l-81.59,81.59
	c-2.929,2.929-2.929,7.678,0,10.606c1.464,1.464,3.384,2.197,5.303,2.197s3.839-0.732,5.303-2.197l81.59-81.59
	c7.124-2.985,15.399-1.406,20.914,4.108l15.778,15.778c7.685,7.686,17.704,12.183,28.458,12.852L238.908,334.589z M335.175,238.321
	c-0.001,0.001-0.003,0.002-0.004,0.003c-5.517,5.517-12.853,8.556-20.654,8.556c-7.802,0-15.138-3.039-20.655-8.556l-15.778-15.778
	c-6.924-6.924-16.288-10.377-25.665-9.964c0.417-9.372-3.04-18.74-9.964-25.665l-15.779-15.778
	c-11.388-11.388-11.389-29.917-0.003-41.306c0.001-0.001,0.002-0.002,0.003-0.003s0.002-0.002,0.003-0.003
	c14.481-14.478,33.736-22.452,54.22-22.452c7.131,0,14.193,0.994,21.024,2.932l32.921,32.922c1.464,1.465,3.384,2.197,5.303,2.197
	c1.919,0,3.839-0.732,5.303-2.197c2.929-2.929,2.929-7.678,0-10.606l-28.983-28.983l5.034-5.034
	c5.996-5.996,13.967-9.297,22.446-9.297s16.451,3.302,22.447,9.298c12.374,12.374,12.377,32.506,0.008,44.884l-10.346,10.346
	c-0.226,0.226-0.428,0.465-0.618,0.71c-0.047,0.061-0.091,0.123-0.136,0.185c-0.151,0.207-0.29,0.418-0.417,0.636
	c-0.03,0.052-0.062,0.102-0.091,0.154c-0.153,0.277-0.29,0.56-0.405,0.85c-0.005,0.011-0.008,0.023-0.012,0.035
	c-0.106,0.272-0.193,0.55-0.266,0.831c-0.019,0.071-0.035,0.141-0.052,0.212c-0.059,0.255-0.105,0.511-0.137,0.77
	c-0.006,0.047-0.015,0.094-0.02,0.141c-0.031,0.298-0.042,0.598-0.037,0.897c0.001,0.075,0.007,0.149,0.011,0.224
	c0.011,0.243,0.034,0.485,0.068,0.726c0.011,0.073,0.019,0.146,0.032,0.219c0.053,0.306,0.122,0.609,0.213,0.907
	c0.002,0.007,0.003,0.014,0.005,0.021C362.636,188.655,355.347,218.146,335.175,238.321z"/>
<g>
</g>
<g>
</g>
<g>
</g>
<g>
</g>
<g>
</g>
<g>
</g>
<g>
</g>
<g>
</g>
<g>
</g>
<g>
</g>
<g>
</g>
<g>
</g>
<g>
</g>
<g>
</g>
<g>
</g>
</svg>
